<?xml version="1.0" standalone="no"?><!DOCTYPE svg PUBLIC "-//W3C//DTD SVG 1.1//EN" "http://www.w3.org/Graphics/SVG/1.1/DTD/svg11.dtd"><svg t="1680662753910" class="icon" viewBox="0 0 4180 1024" version="1.1" xmlns="http://www.w3.org/2000/svg" p-id="2830" xmlns:xlink="http://www.w3.org/1999/xlink" width="816.40625" height="200"><path d="M1787.708941 368.647984l0.007984-0.039922-26.763727 94.854737 26.755743-94.814815z m137.65115 205.925802l-29.486409-0.175657 29.486409 0.175657z m-7.585185 141.651337h0.031938l-176.702878 0.638752 176.67094-0.638752z m37.047641-141.475681l-29.502378-0.175656 29.502378 0.175656z m-21.557895 129.435197l30.771899-117.386729-30.771899 117.410683v-0.023954z m650.569357-540.584171l-57.336015 269.553528 57.336015-269.553528z m-147.392125 0l-43.522994 201.366705 43.522994-201.382674v0.015969z" fill="#131B28" p-id="2831"></path><path d="M2574.01319 151.472156h-122.60853c-6.802713 0-13.549536 5.461333-15.010682 12.112343l-43.522994 201.382674-43.530979 201.390659c-1.445177 6.643025-8.184016 12.08839-14.986729 12.08839h-86.782503c-85.856312 0-75.931696-59.388008-58.350035-140.741115l0.526971-2.459197 1.924242-10.251976 0.367282-1.932226 3.912359-20.879221 4.199797-22.380288c1.277505-6.746823 3.209731-16.607563 4.487236-22.803462l19.785357-96.683166 19.801325-96.683166c1.365333-6.666979-3.097949-12.144281-9.900662-12.14428h-125.850199c-6.802713 0-13.533567 5.477302-14.930838 12.128312l-27.05915 128.381255-27.059151 128.365287c-0.023953 0.055891-0.031938 0.135735-0.039922 0.191625l-2.515087 11.928702c-31.163135 142.298074-22.899275 277.993045 146.497871 282.240749 2.770589 0.079844 4.910409 0.103797 4.910409 0.103797h265.896671c6.802713 0 13.533567-5.461333 14.962776-12.128312l57.336015-269.529575 57.344-269.553528c1.405255-6.682947-3.002136-12.136296-9.80485-12.144281z m489.124679 428.363353c6.818682 0 11.265996 5.461333 9.900663 12.128312l-11.904749 58.190347m-11.88878 58.2143l11.904749-58.222285-11.912733 58.246238 0.007984-0.023953z m-14.930838 12.248078l0.063875-0.015969c-36.089513 0.287439-144.517739 1.117817-226.014565 1.117817 99.182285 0 225.942706-1.093864 225.95069-1.101848z m-299.095828-215.730651c-0.095813-6.371556 7.154027-17.350113 13.972709-17.350113l-15.314089-0.255501c-6.906511 69.400452 1.34138 17.605614 1.34138 17.605614z" fill="#131B28" p-id="2832"></path><path d="M2819.533658 721.686456c-0.782472 0-1.580912 0-2.363384 0.015969 0.782472-0.015969 1.580912-0.015969 2.363384-0.015969z m243.604211-141.850947c6.818682 0 11.265996 5.461333 9.900663 12.128312l-11.904749 58.190347-1.94021 9.485473M2877.580286 721.550721h-0.495033 0.495033z m-30.101209 0.095813h-1.748584 1.748584z m-9.182066 0.023953c-0.974097 0-1.924242 0-2.88237 0.015969 0.958129-0.015969 1.908273-0.015969 2.88237-0.015969z m-9.341754 0.015969h-2.531057 2.531057z m16.767251-0.039922l-7.433481 0.015969 7.433481-0.015969z m31.378714-0.095813c-9.924616 0.039922-19.825279 0.079844-29.582223 0.103798 9.756943-0.015969 19.673575-0.063875 29.582223-0.103798z m157.292787-0.958128z m14.850994-12.192188l9.972523-48.752779-9.980507 48.784717 0.007984-0.031938z m-213.822378 13.286051h-6.475353 6.475353z m-18.284288 0.015969h-8.758893 8.758893z m9.26191-0.015969h-6.898526 6.898526z m-1793.536998-215.339415l19.050791-84.427103-21.781458 96.507508-20.895189 98.304 18.316226-86.175688c1.405255-6.666979 3.808561-17.565692 5.30963-24.208717z m227.954776-356.296109h-134.649014c-6.818682 0-13.605427 5.43738-15.130448 12.064436l-12.775049 56.353934-12.767064 56.377887c-1.501068 6.627057 2.834464 12.064437 9.645162 12.064437h135.69497c6.810698 0 13.565505-5.43738 15.034636-12.08839l12.335906-56.353934 12.343891-56.314012v-0.015968c1.461146-6.643025-2.914308-12.08839-9.73299-12.08839z m-29.302768 187.465856v-0.015969l-39.49087 182.699165 39.49087-182.683196z m-391.156024 605.361653s67.875431 0.8703 111.015174 0.8703c-32.768 0-86.910253-0.59883-111.071064-0.886269l0.05589 0.015969z m230.58963-605.385607l-19.06676 84.427104 19.06676-84.427104z" fill="#131B28" p-id="2833"></path><path d="M1221.774282 325.412429h-135.710939c-6.802713 0-13.605427 5.43738-15.106496 12.08839l-19.06676 84.427103-19.050791 84.427103c-1.501068 6.643025-3.89639 17.541739-5.30963 24.208718l-18.316226 86.175688-18.300257 86.175688a262.263766 262.263766 0 0 1-6.531244 23.83345s-25.350487 75.436663-67.971244 74.582332c-1.820444-0.039922-3.577014-0.055891-5.325598-0.103798-20.655657-0.391236-36.879969-0.678674-36.879969-0.678674h-0.031938c-6.794729-0.103797-13.621396 5.197848-15.210292 11.808936l-14.076507 59.164444-14.060538 59.132507c-1.572928 6.611088 2.690745 12.072421 9.461521 12.184203 24.168795 0.287439 78.303064 0.894253 111.079048 0.894253 106.464062 0 162.586448-58.988788 198.56418-228.729263l42.10177-194.803525 39.490869-182.70715c1.437193-6.635041-2.95423-12.080405-9.748959-12.080405z m1927.834698 389.39147c-6.810698 0-11.21809-5.461333-9.788881-12.136297l102.088608-478.186043m49.583158 478.178059l41.287361-204.097372-41.287361 204.097372z" fill="#131B28" p-id="2834"></path><path d="M3141.305198 708.743735c-0.830378-3.329497-0.343329-11.489559 1.101848-18.164523l48.449373-226.980678-51.044305 239.085037c-1.437193 6.666979 2.978183 12.128312 9.788882 12.128312h12.399781c-6.818682-0.007984-19.88117-2.730667-20.695579-6.068148z m142.122417 3.337481c-3.704764 1.501068-12.319938 2.730667-19.130635 2.730667h12.399782c6.810698 0 13.485661-5.461333 14.835025-12.144281l2.459197-12.128312c-1.365333 6.658994-6.85062 20.032873-10.563369 21.541926z m28.74386-111.470284l18.220413-90.080063c-0.007984 0.055891-0.015969 0.135735-0.031937 0.175657l-18.188476 89.904406z m402.813255-344.087953l5.621022 23.234619c1.548975 6.65101-2.746635 12.048468-9.53338 12.064437m-417.105341 398.717255l18.172506-89.920374-18.172506 89.920374z m415.420631-457.817824l5.565131 23.801513-5.565131-23.801513zM3330.37592 510.538854c1.357349-6.666979 3.600967-17.469879 5.014206-24.072983l19.465981-91.189894-22.044944 103.294253-2.435243 11.968624z m-86.790488-293.882012c-1.349365 6.435431-3.089965 14.563556-4.231735 19.945045l-48.449372 226.996647 51.044304-239.101006 1.636803-7.840686z" fill="#131B28" p-id="2835"></path><path d="M3720.573814 279.757598l-5.621021-23.234619-5.565131-23.801513-2.818495-12.048468c-11.026464-42.820366-43.387259-67.540086-113.642043-67.540086l-109.386355-0.119766-100.739243-0.119766H3269.454906c-6.802713 0-13.533567 5.43738-14.938823 12.104359h-0.007984l-5.014207 23.681746-5.90846 27.969373-1.652772 7.832701-51.044304 239.101006-48.449372 226.980679c-1.445177 6.674963-1.924242 14.835025-1.101848 18.164522 0.822394 3.337481 13.876897 6.068148 20.695579 6.068148h102.264265c6.818682 0 15.433856-1.229598 19.130635-2.730666 3.712749-1.501068 9.198035-14.874947 10.555384-21.541926l18.172507-89.920375 18.19646-89.904405 0.031938-0.175657 2.427259-11.968624 22.052928-103.294253 19.465981-91.229817c1.445177-6.627057 8.152078-12.048468 14.938822-12.064437l321.77154-0.159688c6.786745 0 11.090339-5.405442 9.53338-12.048468z" fill="#131B28" p-id="2836"></path><path d="M4134.804769 69.663938c-6.818682 0.047906-17.948943 0.087828-24.767625 0.087828h-102.990846c-6.818682 0-15.529669 4.599018-19.378152 10.220039L3759.936933 413.616156c-3.848483 5.63699-8.231922 4.798628-9.748959-1.828429l-16.759267-73.512421c-1.509053-6.65101-8.335719-12.064437-15.138433-12.064437h-146.418027c-6.810698 0-10.842823 5.341567-8.982456 11.88878l65.60786 229.823127c1.868351 6.547212 2.004086 17.310191 0.319376 23.90531l-28.592156 111.230752c-1.700678 6.603103 2.491135 12.008546 9.309817 12.008546h144.693395c6.810698 0 13.765115-5.405442 15.457809-12.008546l28.608125-111.230752c1.68471-6.595119 6.419462-16.45586 10.523446-21.89324l369.72588-490.713575c4.103984-5.43738 1.876335-9.860741-4.918394-9.812834l-38.82018 0.255501zM2971.636582 357.49377l-0.007984-0.135735c-0.854331 7.385575-7.673014 12.806986-14.467743 12.806986h-185.621458c-6.419462 0-9.685084-4.36747-8.734939-9.748959 0.055891-0.159688 0.079844-0.295423 0.167672-0.431158 0 0-0.063875 0.015969-0.119766 0.055891 0.039922-0.215579 0.039922-0.415189 0.103797-0.622783l0.846347-3.161825c17.733365-47.131945 53.838846-78.071517 121.706293-78.071516 76.402776 0.007984 91.317645 37.343064 86.127781 79.309099z m-54.453645-214.253536c-238.262643 0-294.720374 144.621536-326.394511 290.584452-31.674136 148.773427-28.94347 287.877739 217.599002 287.877739h8.758893c0.782472-0.015969 1.572928-0.015969 2.3554-0.015969h15.904935c0.958129-0.015969 1.908273-0.015969 2.882371-0.015969l7.433481-0.015968h1.740601c9.764928-0.015969 19.665591-0.063875 29.582222-0.095813h0.495033c65.112827-0.255501 130.417279-0.750534 156.86163-0.958129 6.770776-0.103797 13.389848-5.557146 14.779134-12.16025l9.980507-48.784717 1.94021-9.493458 11.912733-58.182363c1.365333-6.674963-3.097949-12.136296-9.900662-12.136296h-221.663065c-88.155821 0-114.328702-23.426246-104.68354-92.299727h354.323961l-0.031937 0.039922c0.087828 0 0.167673-0.039922 0.239532-0.039922 5.629006-0.103797 10.834838-3.976234 12.902799-9.142144 0.391236-0.998051 0.726581-2.028039 0.854332-3.097949l-0.039923 0.039922c52.609248-198.444413 37.518721-332.087392-187.857091-332.087392l0.023953-0.015969zM1791.062391 356.735251l-3.35345 11.872811-0.007984 0.039922-26.755743 94.814815-26.747758 94.798846c-1.844398 6.547212-8.926565 11.904749-15.753232 11.904749H1576.840793c-107.406222 0-133.571119-84.00393-107.406222-207.929887 26.140943-126.744452 77.42478-205.534565 183.146292-213.510987 144.461848-10.890729 173.365396 90.718815 138.481528 208.009731z m97.114324 206.141381s66.765598-162.107384 81.935969-255.748492C1990.784309 181.780959 1928.026882 0 1685.620333 0c-241.025248 0-345.684834 173.557021-385.622831 362.228522-39.930012 190.036834 12.391797 356.703314 252.043727 355.337981l189.062737-0.702628 176.702878-0.638752c6.810698-0.063875 13.765115-5.461333 15.497731-12.032499l30.771898-117.410682c1.716647-6.587135-2.443228-12.008546-9.245941-12.048468l-29.502379-0.167673-29.486409-0.175657c-5.796678-0.039922-9.110207-3.784608-8.407579-8.758893a11.976608 11.976608 0 0 1 0.726581-2.770588l0.015969 0.015969z" fill="#131B28" p-id="2837"></path><path d="M3081.342313 454.376546a8.128125 8.128125 0 1 1-16.256249 0 8.128125 8.128125 0 0 1 16.256249 0z" fill="#131B28" p-id="2838"></path><path d="M47.739319 243.596226c-66.550019 95.653177-58.270191 220.098121-7.433481 321.731618 1.205645 2.443228 2.48315 4.830565 3.728717 7.233871 0.798441 1.517037 1.54099 3.081981 2.379353 4.575065 0.47108 0.894253 0.990066 1.780522 1.485099 2.634854 0.862316 1.61285 1.756569 3.161825 2.650823 4.734752 1.572928 2.794542 3.193762 5.557146 4.846534 8.327735 0.918207 1.517037 1.828429 3.042058 2.770589 4.559095 1.828429 2.962214 3.712749 5.884507 5.63699 8.814784 0.798441 1.245567 1.572928 2.491135 2.395322 3.704764 2.650823 3.952281 5.36552 7.888593 8.152078 11.776998l0.231547 0.311392c0.447127 0.622784 0.926191 1.221614 1.381302 1.844398 2.419275 3.337481 4.910409 6.627057 7.433482 9.884694 0.926191 1.181692 1.860366 2.379353 2.802526 3.561044a600.052023 600.052023 0 0 0 9.493458 11.585373 429.513107 429.513107 0 0 0 9.756944 11.130261c0.143719 0.159688 0.255501 0.247517 0.367282 0.407205a469.682651 469.682651 0 0 0 20.62372 21.014955c1.06991 1.014019 2.123852 2.051992 3.177793 3.018105a393.367704 393.367704 0 0 0 10.810885 9.828803c0.614799 0.54294 1.245567 1.061926 1.852382 1.580912 3.169809 2.75462 6.411478 5.485287 9.661131 8.160063 1.325411 1.077895 2.674776 2.131836 4.008171 3.193762 2.658807 2.131836 5.349552 4.231735 8.06425 6.299696l4.303594 3.273606c2.994152 2.195712 6.004273 4.36747 9.046332 6.491322 1.117817 0.798441 2.179743 1.572928 3.297559 2.331446 0.311392 0.215579 0.590846 0.439142 0.902238 0.646737 2.88237 1.988117 5.8366 3.89639 8.782846 5.812647 1.26952 0.838363 2.523072 1.716647 3.808561 2.531057 4.519173 2.866402 9.118191 5.692881 13.757131 8.423548 1.253552 0.726581 2.531057 1.429209 3.800577 2.147805 3.417326 1.972148 6.842635 3.89639 10.323836 5.796678 1.876335 1.014019 3.816546 1.964164 5.70885 2.938261 2.459197 1.285489 4.894441 2.594932 7.39356 3.840499 0.558908 0.27147 1.149754 0.54294 1.708662 0.822394 0.998051 0.487049 2.01207 0.950144 3.018106 1.461146a473.531135 473.531135 0 0 0 14.188288 6.539228c4.511189 1.964164 9.0623 3.856468 13.653334 5.668928 1.101848 0.455111 2.21168 0.878285 3.321512 1.309443a474.952359 474.952359 0 0 0 14.49968 5.333582c4.750721 1.660756 9.541365 3.193762 14.37193 4.702815 1.149754 0.335345 2.307493 0.702628 3.473217 1.037973 4.910409 1.485099 9.772912 3.249653 14.827041 4.183828 321.859368 58.693365 415.348772-193.414238 415.348772-193.414237-78.518643 102.296203-217.894425 129.267524-349.948507 99.238175-4.998238-1.133786-9.852756-2.690745-14.739213-4.135922a426.271439 426.271439 0 0 1-17.861115-5.732803l-1.948195-0.702628a457.322791 457.322791 0 0 1-12.511563-4.638939c-1.165723-0.47108-2.339431-0.910222-3.505154-1.381302a410.518207 410.518207 0 0 1-13.509614-5.613038c-0.910222-0.391236-1.796491-0.806425-2.698729-1.189676a616.699509 616.699509 0 0 1-14.691306-6.882557c-2.962214-1.445177-5.884507-2.978183-8.814784-4.487236-1.956179-1.029988-3.944296-2.004086-5.884507-3.081981a340.718534 340.718534 0 0 1-10.563368-5.924429c-1.173708-0.662706-2.379353-1.301458-3.561045-1.988117a503.257076 503.257076 0 0 1-13.765115-8.431532c-1.245567-0.798441-2.475166-1.644788-3.712748-2.475165a378.141442 378.141442 0 0 1-9.788881-6.507291c-1.077895-0.718596-2.107883-1.501068-3.161825-2.21168-3.113918-2.195712-6.187914-4.431345-9.253926-6.690932-1.389287-1.029988-2.75462-2.075945-4.103984-3.105934a677.780211 677.780211 0 0 1-12.080406-9.509427 474.688873 474.688873 0 0 1-10.395696-8.766877l-1.149754-0.958128a478.744951 478.744951 0 0 1-10.930651-9.940585c-1.045957-0.998051-2.059977-1.964164-3.081981-2.962215a325.013209 325.013209 0 0 1-7.856655-7.704951c-1.029988-1.029988-2.067961-2.044008-3.08198-3.073996-3.273606-3.35345-6.483337-6.754807-9.637178-10.196086l-0.479064-0.503017a391.355634 391.355634 0 0 1-9.780897-11.130262c-0.862316-1.037973-1.708663-2.028039-2.562994-3.042058a408.242651 408.242651 0 0 1-7.034261-8.703002 215.459181 215.459181 0 0 1-2.578963-3.209731c-2.770589-3.592982-5.477302-7.177981-8.128125-10.818869-73.320795-99.996694-99.653365-237.935283-41.063797-351.210043" fill="#0868AC" p-id="2839"></path><path d="M254.319842 163.009622c-48.122012 69.256733-45.511111 161.971649-7.968437 235.220585a306.170012 306.170012 0 0 0 21.286425 35.538588c7.209918 10.331821 15.202308 22.627805 24.77561 30.939571 3.473216 3.82453 7.098136 7.545263 10.802901 11.210106 0.934175 0.958129 1.892304 1.868351 2.842448 2.81051 3.592982 3.489185 7.24984 6.92248 11.034448 10.251977 0.159688 0.119766 0.295423 0.27147 0.447127 0.391236 0.047906 0.039922 0.087828 0.055891 0.111782 0.103797 4.175844 3.664842 8.495407 7.193949 12.88683 10.659181 0.974097 0.74255 1.932226 1.517037 2.922292 2.28354 4.391423 3.369419 8.878659 6.682947 13.477677 9.844772 0.143719 0.095813 0.255501 0.191626 0.391236 0.295423 2.028039 1.405255 4.096 2.706713 6.155976 4.056078 0.982082 0.638752 1.916257 1.325411 2.914308 1.924242 3.281591 2.107883 6.603103 4.159875 9.988492 6.124039 0.487049 0.295423 0.94216 0.54294 1.413239 0.822394 2.914308 1.676725 5.868538 3.329497 8.830753 4.926378 1.037973 0.582862 2.08393 1.093864 3.145856 1.636803 2.044008 1.077895 4.096 2.163774 6.171945 3.193762 0.311392 0.159688 0.630768 0.295423 0.934175 0.431158 4.239719 2.091914 8.511376 4.103984 12.878846 6.004273 0.934175 0.415189 1.900288 0.782472 2.842449 1.165723 3.49717 1.485099 7.018292 2.930277 10.563368 4.287626 1.501068 0.566893 3.02609 1.117817 4.519174 1.660756 3.217715 1.189676 6.4514 2.28354 9.701052 3.377404 1.477115 0.47108 2.914308 0.950144 4.391423 1.405255 4.622971 1.437193 9.198035 3.249653 14.020616 4.056078 248.498651 41.167595 305.874589-150.162713 305.874589-150.162713-51.722979 74.486519-151.871376 110.017123-258.734659 82.279298a303.423376 303.423376 0 0 1-18.300257-5.43738 280.572008 280.572008 0 0 1-14.292086-5.054129 322.354402 322.354402 0 0 1-10.595306-4.271657c-0.950144-0.407205-1.916257-0.782472-2.850433-1.205645a299.047922 299.047922 0 0 1-12.95869-6.020242c-2.195712-1.06991-4.351501-2.203696-6.499306-3.313528l-3.75267-1.932226a294.464873 294.464873 0 0 1-8.223938-4.63894c-0.646737-0.367283-1.317427-0.726581-1.972148-1.109832-3.361435-1.972148-6.674963-3.992203-9.956554-6.084117-1.014019-0.646737-1.988117-1.34138-3.002136-2.004086a392.61717 392.61717 0 0 1-6.459384-4.271657 359.5777 359.5777 0 0 1-13.42977-9.820818c-1.014019-0.798441-2.028039-1.580912-3.02609-2.379353-46.780632-36.93586-83.860211-87.405287-101.489778-144.637505-18.475914-59.35607-14.491696-125.985934 17.517786-180.056328" fill="#0868AC" p-id="2840"></path><path d="M428.068489 102.79922c-28.368593 41.750456-31.15515 93.60917-11.473591 139.727096 20.767439 48.944405 63.308351 87.349396 112.955384 105.55384 2.044008 0.766503 4.096 1.445177 6.163961 2.147805 0.902238 0.27147 1.804476 0.590846 2.722682 0.854331 2.922292 0.918207 5.820632 1.988117 8.846722 2.55501 137.212008 26.508226 174.427322-70.406487 184.335968-84.67462-32.600327 46.94032-87.389318 58.206316-154.610027 41.894176a174.938324 174.938324 0 0 1-16.264234-5.022191 198.803712 198.803712 0 0 1-19.314277-8.024328 199.777809 199.777809 0 0 1-33.861863-20.663641c-60.154511-45.638862-97.521528-132.708803-58.270191-203.618308M1973.426212 916.050838l-39.554745 90.072078h-43.666713l3.577013-81.84814-32.145216 81.84814h-42.277427l-1.117817-90.072078 4.670878-22.244553h29.94152l-5.772725 88.978214 33.23908-88.978214h41.742472l-3.018106 90.080062 32.959626-90.080062h26.085053l-4.662893 22.244553z m68.905419 26.667914c3.840499-17.589645 2.746635-20.87922-6.315665-20.87922h-13.741161l-8.790831 41.207517-13.461707 43.091836h-25.534129l20.863251-97.753076 3.034074-14.292086h23.338418l3.026089 6.587135s13.461708-7.952468 26.627992-7.952468c28.025263 0 25.821567 21.126737 19.777373 49.982378l-28.823704 0.007984z m82.957973-62.925099c-11.250027 0-18.39607-3.289575-15.649435-17.014768 3.018105-13.741162 11.808936-17.038721 22.787493-17.038721 11.002511 0 18.412039 3.297559 15.393934 17.038721-2.762604 13.453723-11.537466 17.014768-22.531992 17.014768z m-12.080406 126.345232h-25.278627l4.950331-43.938183 8.79083-40.640624-17.565692-3.856468 4.934363-23.881357h48.058136l-23.889341 112.316632z m109.569996-88.491166l-31.578323 3.864453-9.078269 42.836335c-2.475166 11.81692-2.475166 15.11448 7.976421 15.114479h21.134721l-4.399407 22.508039s-19.21048 5.772725-27.458371 5.772725c-32.408702 0-32.137232-17.845146-26.356522-44.497091l8.79083-42.013942-17.581661-3.832514 5.213817-23.897326h18.412039l10.443603-28.304717h24.991189l-6.05218 28.304717h30.763915l-5.221802 24.144842z m65.631813 1.429209c-14.819057 0-22.516023 7.704951-25.534128 21.430144l42.293395-3.569029c1.908273-9.33377-0.007984-17.861115-16.759267-17.861115z m-29.646097 41.742472c-1.940211 13.749146 3.281591 18.404055 20.855267 18.404054h44.209653l-4.391423 20.871236s-26.635977 7.409528-46.405365 7.409528c-49.159984 0-49.718893-27.713871-43.395243-57.391906 6.315665-29.111142 17.565692-57.934846 65.072904-57.934846 45.878394 0 48.074105 27.72984 36.808109 68.641934h-72.753902z m173.525084 45.295532h-25.254675l4.942347-43.938183 17.853131-83.492928-17.59763-4.111969 5.221801-23.897326h48.074106l-33.23908 155.440406z m91.261754-87.038004c-14.84301 0-22.524008 7.704951-25.550097 21.430144l42.30138-3.569029c1.908273-9.33377-0.007984-17.861115-16.751283-17.861115z m-29.670051 41.742472c-1.916257 13.749146 3.305544 18.404055 20.863252 18.404054h44.225622l-4.399408 20.871236s-26.651945 7.409528-46.421333 7.409528c-49.159984 0-49.702924-27.713871-43.387259-57.391906 6.323649-29.111142 17.581661-57.934846 65.088873-57.934846 45.862425 0 48.066121 27.72984 36.808109 68.641934h-72.777856z m188.639564-40.377139s-32.129248 0.27147-40.920078 0.27147c-18.683509 0-20.599766 5.756756-21.9651 11.792967l-1.117816 5.493271 59.332116 4.407392s0.27147 18.946994-2.195711 29.654081c-3.569029 17.853131-21.973084 35.969747-55.196195 35.969747-16.487797 0-43.123774-6.299696-43.123774-6.299696l4.662893-21.693629h40.928062c18.132585 0 20.60775-4.958316 21.717583-9.884694l1.365334-7.138059-58.222285-4.407392s-2.195712-14.563556 0.822394-29.103158c4.407392-19.793341 22.508039-36.800125 55.739134-36.800124 16.479813 0 43.115789 6.020242 43.11579 6.020241l-4.942347 21.717583z m110.424327 0s-32.121263 0.27147-40.920078 0.27147c-18.675524 0-20.591782 5.756756-21.965099 11.792967l-1.117817 5.493271 59.340101 4.407392s0.27147 18.946994-2.195711 29.654081c-3.569029 17.853131-21.973084 35.969747-55.204179 35.969747-16.471828 0-43.115789-6.299696-43.11579-6.299696l4.670877-21.693629h40.920078c18.1246 0 20.591782-4.958316 21.709599-9.884694l1.365333-7.138059-58.230269-4.407392s-2.187727-14.563556 0.822394-29.103158c4.407392-19.793341 22.516023-36.800125 55.763087-36.800124 16.463844 0 43.099821 6.020242 43.099821 6.020241l-4.942347 21.717583z m34.572476 103.557739h-21.957115l0.822394-16.487797c-7.976421-0.518986-12.08839-6.291712-10.164149-15.928889 3.018105-13.725193 11.537466-17.014768 22.795478-17.014768 10.978558 0 18.380101 3.289575 15.377965 17.014768l-6.874573 32.416686z m146.91306-102.439922c-16.463844 0-22.228585 9.884694-26.085052 28.009294-3.840499 18.132585-2.746635 28.831688 13.725193 28.831688h22.795477l12.639314-56.840982h-23.074932z m37.630503 70.015251l-3.034074 14.563556-23.050978-0.279454-3.305544-7.130074s-20.336281 8.766877-34.045505 8.766877c-35.163322 0-36.816094-28.823704-30.500429-57.934846 6.315665-29.662066 20.056827-57.679345 54.932709-57.679345 12.647298 0 29.662066 6.315665 29.662067 6.315665l14.004647-47.507213h25.278628l-29.941521 140.884834z m90.918425-71.133068c-21.414175 0-28.296733 12.064437-32.129247 29.646098-3.569029 17.853131-1.908273 29.94152 19.210479 29.94152 21.981068 0 28.576187-11.808936 32.416686-29.94152 3.856468-17.038721 2.738651-29.646097-19.497918-29.646098z m-18.66754 87.333427c-45.319485 0-48.896499-28.280764-42.852304-57.679345 6.323649-29.382612 22.252538-57.391906 67.572023-57.391906 45.032047 0 49.159984 28.009294 42.828351 57.391906-6.30768 29.94152-22.244554 57.679345-67.54807 57.679345z m257.081887-1.660756l4.950331-43.395244 2.475166-12.35986c3.569029-16.463844 5.772725-28.552234-11.537466-28.552233h-13.453723c0.550924 8.511376-1.109832 18.132585-3.297559 28.280764l-11.808936 56.026573h-25.542113l4.942347-43.395244 2.467181-12.35986c3.577014-16.463844 5.764741-28.552234-11.513513-28.552233h-11.00251l-18.132585 84.307337h-29.390597l23.897326-112.308647h23.066947l3.56903 6.858604s15.665404-8.247891 28.296733-8.247891c9.60524 0 16.751283 4.407392 19.226448 9.884694 5.485287-3.02609 21.142706-9.884694 32.416686-9.884694 35.1234 0 34.045505 28.552234 27.721856 57.687329l-11.808936 56.018589h-25.542113v-0.007984z m116.732008-85.672671c-21.438129 0-28.296733 12.064437-32.129248 29.646098-3.569029 17.853131-1.908273 29.94152 19.218464 29.94152 21.965099 0 28.576187-11.808936 32.416686-29.94152 3.832515-17.038721 2.738651-29.646097-19.505902-29.646098z m-18.675525 87.333427c-45.335454 0-48.888515-28.280764-42.844319-57.679345 6.315665-29.382612 22.244554-57.391906 67.564039-57.391906 45.056 0 49.159984 28.009294 42.836335 57.391906-6.30768 29.94152-22.244554 57.679345-67.556055 57.679345z m143.871002-65.056936c3.832515-17.589645 2.746635-20.87922-6.30768-20.87922h-13.749146l-8.79083 41.207517-13.469692 43.091836h-25.526145l20.863252-97.753076 3.026089-14.292086h23.346402l3.010121 6.587135s13.469692-7.952468 26.65993-7.952468c28.00131 0 25.797614 21.126737 19.761403 49.982378l-28.823704 0.007984z m98.367876-23.641824c-14.811072 0-22.508039 7.704951-25.526145 21.430144l42.277427-3.569029c1.924242-9.33377-0.007984-17.861115-16.751282-17.861115z m-29.662067 41.742472c-1.908273 13.749146 3.297559 18.404055 20.871236 18.404054h44.217638l-4.391423 20.871236s-26.643961 7.409528-46.405365 7.409528c-49.159984 0-49.710908-27.713871-43.419197-57.391906 6.331634-29.111142 17.59763-57.934846 65.096858-57.934846 45.854441 0 48.074105 27.72984 36.800125 68.641934h-72.769872z m97.449669 46.972257c-11.537466 0-18.66754-3.289575-15.64145-16.743298 2.730667-13.765115 11.242043-17.038721 22.787493-17.038722 10.707088 0 18.116616 3.273606 15.385949 17.038722-3.042058 13.174269-11.808936 16.743298-22.531992 16.743298z" fill="#0868AC" p-id="2841"></path></svg>